<svg id="圖層_1" data-name="圖層 1" xmlns="http://www.w3.org/2000/svg" viewBox="0 0 753.18 753.19"><defs><style>.cls-1{fill:rgba(0,0,0,0.4);}.cls-2{fill:#fff;}</style></defs><title>back_button</title><circle class="cls-1" cx="376.59" cy="376.6" r="363.56"/><path class="cls-2" d="M749.54,1078.17c-207.65,0-376.59-169-376.59-376.6S541.89,325,749.54,325s376.59,168.94,376.59,376.59S957.19,1078.17,749.54,1078.17Zm0-727.12C556.27,351.05,399,508.3,399,701.57S556.27,1052.1,749.54,1052.1s350.52-157.25,350.52-350.53S942.82,351.05,749.54,351.05Z" transform="translate(-372.95 -324.98)"/><circle class="cls-2" cx="541.7" cy="339.68" r="17.95"/><circle class="cls-2" cx="541.7" cy="413.52" r="17.95"/><path class="cls-2" d="M857,724.68H566.48l127,127,.16-.25.23.23a13.82,13.82,0,0,0,19.54-19.54l-80-80c.28,0,.51.16.78.16H857a13.82,13.82,0,0,0,0-27.64Z" transform="translate(-372.95 -324.98)"/><path class="cls-2" d="M857,678.47H566.48l127-127,.16.25.23-.23A13.82,13.82,0,0,1,713.42,571l-80,80c.28,0,.51-.16.78-.16H857a13.82,13.82,0,1,1,0,27.63Z" transform="translate(-372.95 -324.98)"/></svg>