<svg id="圖層_1" data-name="圖層 1" xmlns="http://www.w3.org/2000/svg" viewBox="0 0 858.68 858.66"><defs><style>.cls-1{fill:rgba(0,0,0,0.4);}.cls-2{fill:#fff;}</style></defs><title>edit_button</title><circle class="cls-1" cx="429.34" cy="429.33" r="414.47"/><path class="cls-2" d="M719,1152.39c-236.73,0-429.34-192.6-429.34-429.33S482.26,293.73,719,293.73s429.33,192.6,429.33,429.33S955.72,1152.39,719,1152.39Zm0-828.93c-220.35,0-399.62,179.25-399.62,399.6S498.64,1122.67,719,1122.67,1118.6,943.4,1118.6,723.06,939.33,323.46,719,323.46Z" transform="translate(-289.65 -293.73)"/><rect class="cls-2" x="787.91" y="572.68" width="113.42" height="31.5" rx="2.92" transform="translate(736.12 1308.02) rotate(-135)"/><rect class="cls-2" x="735.1" y="625.49" width="113.42" height="31.5" rx="2.92" transform="translate(608.63 1360.83) rotate(-135)"/><path class="cls-2" d="M577.25,784.6a15.79,15.79,0,0,1,10,19.91l-1.31,4,239-239a15.75,15.75,0,1,0-22.28-22.27L561.42,788.43A15.67,15.67,0,0,1,577.25,784.6Z" transform="translate(-289.65 -293.73)"/><path class="cls-2" d="M537.27,874.06l30.22-10,18.44-55.6-3.83,3.82a15.78,15.78,0,0,1-22.27,0,15.59,15.59,0,0,1-4.5-11.63l-26.79,80.77A15.54,15.54,0,0,1,537.27,874.06Z" transform="translate(-289.65 -293.73)"/><path class="cls-2" d="M529.25,897.46a15.31,15.31,0,0,1-1-1.77A16.19,16.19,0,0,0,529.25,897.46Z" transform="translate(-289.65 -293.73)"/><path class="cls-2" d="M534.4,902.5a15.77,15.77,0,0,1-3.12-2.41A15.45,15.45,0,0,0,534.4,902.5Z" transform="translate(-289.65 -293.73)"/><path class="cls-2" d="M526.88,890.82c0-.13,0-.25,0-.38C526.84,890.57,526.86,890.69,526.88,890.82Z" transform="translate(-289.65 -293.73)"/><path class="cls-2" d="M560.15,789.7l1.27-1.27A16.91,16.91,0,0,0,560.15,789.7Z" transform="translate(-289.65 -293.73)"/><path class="cls-2" d="M559.83,812.3a15.78,15.78,0,0,0,22.27,0l3.83-3.82,1.31-4a15.61,15.61,0,0,0-25.82-16.08l-1.27,1.27a15.69,15.69,0,0,0-2.81,4.89l-2,6.08A15.59,15.59,0,0,0,559.83,812.3Z" transform="translate(-289.65 -293.73)"/><path class="cls-2" d="M643.43,869.88l-1.73,1.73A15.7,15.7,0,0,0,643.43,869.88Z" transform="translate(-289.65 -293.73)"/><path class="cls-2" d="M531.28,900.09a15.64,15.64,0,0,1-2-2.63A15.47,15.47,0,0,0,531.28,900.09Z" transform="translate(-289.65 -293.73)"/><path class="cls-2" d="M535.63,903.21c-.43-.22-.83-.46-1.23-.71C534.81,902.74,535.19,903,535.63,903.21Z" transform="translate(-289.65 -293.73)"/><path class="cls-2" d="M619.28,871.75a15.78,15.78,0,0,1,0-22.27l3.73-3.74-55.52,18.34-10,30.23a15.62,15.62,0,0,1-7.34,8.68l81.22-26.82A15.55,15.55,0,0,1,619.28,871.75Z" transform="translate(-289.65 -293.73)"/><path class="cls-2" d="M557.46,894.31l10-30.23-30.22,10a15.54,15.54,0,0,0-8.73,7.38l-1,3a15.51,15.51,0,0,0-.73,6c0,.13,0,.25,0,.38a15.69,15.69,0,0,0,1.36,4.87,15.31,15.31,0,0,0,1,1.77,14.24,14.24,0,0,0,5.15,5c.4.25.8.49,1.23.71a15.63,15.63,0,0,0,11.51.76l3-1A15.62,15.62,0,0,0,557.46,894.31Z" transform="translate(-289.65 -293.73)"/><path class="cls-2" d="M884.38,606.65a15.78,15.78,0,0,0-22.27,0L623,845.74l4.1-1.35a15.79,15.79,0,0,1,19.89,10,15.6,15.6,0,0,1-3.57,15.47l241-241A15.78,15.78,0,0,0,884.38,606.65Z" transform="translate(-289.65 -293.73)"/><path class="cls-2" d="M641.55,871.75l.15-.14A15.49,15.49,0,0,1,637,874.3l-5.64,1.87" transform="translate(-289.65 -293.73)"/><path class="cls-2" d="M647,854.41a15.79,15.79,0,0,0-19.89-10l-4.1,1.35-3.73,3.74a15.78,15.78,0,0,0,0,22.27,15.55,15.55,0,0,0,12.06,4.42L637,874.3a15.49,15.49,0,0,0,4.72-2.69l1.73-1.73A15.6,15.6,0,0,0,647,854.41Z" transform="translate(-289.65 -293.73)"/></svg>