<svg id="圖層_1" data-name="圖層 1" xmlns="http://www.w3.org/2000/svg" viewBox="0 0 1082.77 1082.75"><defs><style>.cls-1{fill:rgba(0,0,0,0.4);}.cls-2{fill:#fff;}</style></defs><title>status_button</title><circle class="cls-1" cx="541.39" cy="541.38" r="522.64"/><path class="cls-2" d="M712.59,1267.05c-298.53,0-541.39-242.86-541.39-541.38S414.06,184.29,712.59,184.29,1254,427.16,1254,725.67,1011.1,1267.05,712.59,1267.05Zm0-1045.27c-277.85,0-503.91,226-503.91,503.89s226.06,503.89,503.91,503.89,503.9-226,503.9-503.89S990.44,221.78,712.59,221.78Z" transform="translate(-171.2 -184.29)"/><circle class="cls-2" cx="317.49" cy="402.5" r="25.81"/><rect class="cls-2" x="406.66" y="382.64" width="359.96" height="39.72" rx="1.06"/><circle class="cls-2" cx="317.49" cy="553.54" r="25.81"/><rect class="cls-2" x="406.66" y="533.67" width="359.96" height="39.72" rx="1.06"/><circle class="cls-2" cx="317.49" cy="696.64" r="25.81"/><rect class="cls-2" x="406.66" y="676.78" width="359.96" height="39.72" rx="1.06"/></svg>